<?xml version="1.0" encoding="iso-8859-1"?>
<!-- Generator: Adobe Illustrator 16.0.0, SVG Export Plug-In . SVG Version: 6.00 Build 0)  -->
<!DOCTYPE svg PUBLIC "-//W3C//DTD SVG 1.1//EN" "http://www.w3.org/Graphics/SVG/1.1/DTD/svg11.dtd">
<svg version="1.1" id="Capa_1" xmlns="http://www.w3.org/2000/svg" xmlns:xlink="http://www.w3.org/1999/xlink" x="0px" y="0px"
	 width="612px" height="612px" viewBox="0 0 612 612" style="enable-background:new 0 0 612 612;" xml:space="preserve">
<g>
	<g>
		<path d="M41.19,500.53h23.696c9.051,0,16.395-7.34,16.395-16.396c0-9.051-7.339-16.395-16.395-16.395H41.19v-73.22h23.696
			c9.051,0,16.395-7.34,16.395-16.396c0-9.051-7.339-16.395-16.395-16.395H41.19v-73.215h23.696c9.051,0,16.395-7.339,16.395-16.395
			c0-9.051-7.339-16.395-16.395-16.395H41.19v-73.22h23.696c9.051,0,16.395-7.339,16.395-16.395s-7.339-16.395-16.395-16.395H41.19
			V76.5h23.696c9.056,0,16.395-7.339,16.395-16.395S73.942,43.71,64.886,43.71H41.19V0H0v570.81V612l0,0h41.19l0,0H612v-41.19H41.19
			V500.53z"/>
		<polygon points="515.944,406.406 515.944,535.5 592.444,535.5 592.444,454.219 		"/>
		<polygon points="390.265,325.125 390.265,535.5 466.765,535.5 466.765,372.938 		"/>
		<polygon points="264.59,243.844 264.59,535.5 341.09,535.5 341.09,296.438 		"/>
		<polygon points="215.41,215.156 138.91,167.344 138.91,535.5 215.41,535.5 		"/>
		<polygon points="529.495,257.355 167.812,6.436 142.51,42.926 502.395,292.569 473.659,329.906 612,348.31 558.78,219.302 		"/>
	</g>
</g>
<g>
</g>
<g>
</g>
<g>
</g>
<g>
</g>
<g>
</g>
<g>
</g>
<g>
</g>
<g>
</g>
<g>
</g>
<g>
</g>
<g>
</g>
<g>
</g>
<g>
</g>
<g>
</g>
<g>
</g>
</svg>
